<?xml version="1.0" encoding="utf-8"?>
<!-- Generator: Adobe Illustrator 19.0.0, SVG Export Plug-In . SVG Version: 6.00 Build 0)  -->
<!DOCTYPE svg PUBLIC "-//W3C//DTD SVG 1.1//EN" "http://www.w3.org/Graphics/SVG/1.1/DTD/svg11.dtd">
<svg version="1.1" id="Layer_1" xmlns="http://www.w3.org/2000/svg" xmlns:xlink="http://www.w3.org/1999/xlink" x="0px" y="0px"
	 viewBox="0 0 100 100" enable-background="new 0 0 100 100" xml:space="preserve">
<g id="XMLID_220_">
	<polygon id="XMLID_269_" fill="#FFFFFF" points="6.8,73 6.7,73 3,66.5 0.4,66.5 0.4,76.7 2.8,76.7 2.8,70.3 2.8,70.3 6.5,76.7 
		9.1,76.7 9.1,66.5 6.8,66.5 6.8,73 	"/>
	<path id="XMLID_266_" fill="#FFFFFF" d="M21.1,73.2l1.3-4.2h0l1.3,4.2H21.1L21.1,73.2z M21,66.5l-3.8,10.2H20l0.5-1.6h3.8l0.5,1.6
		h2.7l-3.9-10.2H21L21,66.5z"/>
	<polygon id="XMLID_265_" fill="#FFFFFF" points="41.2,74.1 41.2,74.1 39.4,66.5 35.7,66.5 35.7,76.7 38,76.7 38,68.8 38,68.8 
		40.1,76.7 42.3,76.7 44.4,68.8 44.4,68.8 44.4,76.7 46.8,76.7 46.8,66.5 43.1,66.5 41.2,74.1 	"/>
	<polygon id="XMLID_264_" fill="#FFFFFF" points="64.5,68.8 64.5,68.8 64.5,76.7 67,76.7 67,66.5 63.3,66.5 61.4,74.1 61.4,74.1 
		59.6,66.5 55.8,66.5 55.8,76.7 58.1,76.7 58.1,68.8 58.2,68.8 60.2,76.7 62.5,76.7 64.5,68.8 	"/>
	<path id="XMLID_261_" fill="#FFFFFF" d="M79,74.8c-2,0-2.6-1.7-2.6-3.2c0-2.3,1.1-3.2,2.6-3.2c1.9,0,2.6,1.6,2.6,3.2
		C81.6,73.2,80.9,74.8,79,74.8L79,74.8z M79,66.2c-3.3,0-5.2,2.5-5.2,5.4S75.8,77,79,77c3.3,0,5.2-2.5,5.2-5.4S82.3,66.2,79,66.2
		L79,66.2z"/>
	<path id="XMLID_260_" fill="#FFFFFF" d="M100,73.3c0-1.9-1.7-2.6-3.7-2.9l-1-0.2c-1-0.2-1.4-0.4-1.4-1c0-0.7,0.9-1,1.4-1
		c1.1,0,2.1,0.5,2.7,1.3l1.9-1.4c-1.1-1.3-2.8-2-4.5-2c-2.2,0-4.2,1-4.2,3.5c0,1.5,1,2.5,2.9,2.8l2.1,0.3c0.8,0.1,1.1,0.4,1.1,0.9
		c0,0.9-1.2,1.2-1.9,1.2c-1.2,0-2.1-0.5-3-1.3l-1.9,1.3c1.4,1.5,2.9,2.1,4.6,2.1C97.3,77,100,76.4,100,73.3L100,73.3z"/>
	<path id="XMLID_259_" fill="#FFFFFF" d="M15.3,90.1c-0.4-0.3-0.9-0.7-1.4-1c-0.3-0.2-0.6-0.5-0.8-0.6c-0.6-0.5-0.8-0.9-0.7-1.4
		c0.2-0.5,0.7-0.6,1.1-0.6c0,0,0,0,0.1,0c0.8,0,1.2,0.3,1.3,1c0,0,0,0.1,0.1,0.1l0.3,0c0,0,0.1,0,0.1-0.1l-0.1-1.1
		c0-0.1,0-0.1-0.1-0.1c-0.5-0.3-1.1-0.4-1.6-0.4c-1.1,0-2,0.6-2.2,1.6c-0.2,0.9,0.1,1.6,1.1,2.2l0.2,0.2c0.7,0.5,1.3,0.9,1.7,1.3
		c0.3,0.2,0.3,0.5,0.3,0.8c-0.1,0.4-0.3,0.8-0.6,0.9c-0.2,0.1-0.5,0.2-0.7,0.2c-0.6,0-1.4-0.4-1.5-1.3c0,0,0-0.1-0.1-0.1
		c0,0-0.1,0-0.3,0h0l0,0c0,0-0.1,0.1,0,0.1l-0.1,1.3l0,0l0,0c0.4,0.4,1.1,0.7,2,0.7c0.3,0,0.7-0.1,1-0.2c0.9-0.3,1.6-1,1.7-1.7
		C16.1,91.1,15.8,90.5,15.3,90.1L15.3,90.1z"/>
	<path id="XMLID_258_" fill="#FFFFFF" d="M26.3,86c-0.5,0-2.7,0-3.2,0c-0.4,0-2.7,0-3.2,0c0,0-0.1,0-0.1,0l0,0c0,0-0.3,1.1-0.4,1.7
		c0,0.1,0,0.1,0.1,0.1h0.2c0.1,0,0.1,0,0.1-0.1c0.5-1,0.7-1.2,1.6-1.2l1.1,0v5.4c0,0.9-1.1,0.9-1.2,0.9c-0.1,0-0.1,0.1-0.1,0.1
		c0,0.3,0,0.3,0,0.4c0,0,0,0,0,0.1c0,0,0.1,0,0.1,0c0.7,0,1.8,0,1.8,0c0,0,1.2,0,1.9,0c0,0,0,0,0,0c0,0,0.1,0,0.1,0l0,0v-0.4
		c0,0,0-0.1-0.1-0.1c-0.1,0-1.3,0-1.3-0.9v-5.4l1.1,0c0.9,0,1.2,0.3,1.6,1.2c0,0,0,0.1,0.1,0.1h0.2c0,0,0.1,0,0.1-0.1
		c-0.2-0.7-0.4-1.5-0.4-1.7C26.4,86,26.4,86,26.3,86L26.3,86z"/>
	<path id="XMLID_257_" fill="#FFFFFF" d="M34.8,86C34.8,86,34.7,86,34.8,86c-0.7,0-1.9,0.1-1.9,0.1c0,0-1.2,0-1.8,0c0,0,0,0,0,0
		C31,86,31,86,31,86.1v0.4c0,0,0,0.1,0.1,0.1c0,0,0,0,0,0c0,0,0.1,0,0.1,0c0.4,0,1.1,0.1,1.1,0.9v4.4c0,0.8-0.7,0.9-1.1,0.9
		c-0.1,0-0.1,0-0.2,0c0,0,0,0,0,0c-0.1,0-0.1,0.1-0.1,0.1c0,0.3,0,0.3,0,0.4c0,0,0,0.1,0.1,0.1c0,0,0,0,0,0c0.7,0,1.8,0,1.8,0
		c0,0,1.2,0,1.8,0c0,0,0,0,0,0c0,0,0.1,0,0.1,0l0,0v-0.4c0,0,0-0.1-0.1-0.1c0,0,0,0,0,0c0,0-0.1,0-0.2,0c-0.4,0-1.1-0.1-1.1-0.9
		v-4.4c0-0.4,0.1-0.6,0.4-0.8c0.2-0.1,0.5-0.2,0.7-0.2c0.1,0,0.1,0,0.2,0c0,0,0,0,0,0c0.1,0,0.1-0.1,0.1-0.1L34.8,86L34.8,86
		C34.9,86,34.8,86,34.8,86L34.8,86z"/>
	<path id="XMLID_254_" fill="#FFFFFF" d="M43.4,90.5c0,1.6-1,1.9-1.4,2c-0.4,0.1-0.9-0.1-1.3-0.6c-0.2-0.2-0.3-0.5-0.3-0.7l2.2-1.3
		c0.5-0.3,0.7-0.5,0.8-0.7V90.5L43.4,90.5z M45.3,92.7c-0.3,0-0.7-0.3-0.7-2V88c0,0,0-0.9-0.2-1.2c-0.2-0.4-0.8-1.6-3.2-0.8
		c-2.2,0.8-1.7,2.1-1.7,2.1c0,0,0.1,0.1,0.1,0l1-0.4c0,0,0,0,0-0.1c0,0-0.1-0.2-0.1-0.3c0-0.1,0-0.4,0.3-0.6
		c0.3-0.2,0.7-0.4,1.1-0.4c0.6,0,1.3,0.2,1.4,1.2c0,0.6,0.1,1.5-1.3,2.2l-2.8,1.5c-0.1,0-0.1,0.2-0.1,0.2s0.1,0.8,0.7,1.5
		c0.5,0.6,1.3,0.6,1.6,0.6c0.4-0.1,1.5-0.8,2.1-1.2c0.1,0.5,0.4,1,0.6,1.1c0.1,0,0.2,0,0.2,0c0,0,1-0.4,1.1-0.5
		C45.5,93,45.5,93,45.3,92.7C45.4,92.7,45.3,92.7,45.3,92.7L45.3,92.7z"/>
	<path id="XMLID_253_" fill="#FFFFFF" d="M56,86c-0.5,0-2.7,0-3.2,0c-0.4,0-2.7,0-3.2,0c0,0-0.1,0-0.1,0l0,0c0,0-0.2,0.9-0.4,1.7
		c0,0.1,0,0.1,0.1,0.1h0.2c0.1,0,0.1,0,0.1-0.1c0.5-1,0.7-1.2,1.6-1.2l1.1,0v5.4c0,0.9-1.1,0.9-1.2,0.9c-0.1,0-0.1,0.1-0.1,0.1
		c0,0.3,0,0.3,0,0.4c0,0,0,0,0,0.1c0,0,0.1,0,0.1,0c0.7,0,1.8,0,1.8,0c0,0,1.2,0,1.9,0c0,0,0,0,0,0c0,0,0.1,0,0.1,0l0,0v-0.4
		c0,0,0-0.1-0.1-0.1c-0.1,0-1.3,0-1.3-0.9v-5.4l1.1,0c0.9,0,1.2,0.3,1.6,1.2c0,0,0,0.1,0.1,0.1h0.2c0,0,0.1,0,0.1-0.1
		c-0.1-0.6-0.4-1.6-0.4-1.7C56.1,86,56.1,86,56,86L56,86z"/>
	<path id="XMLID_250_" fill="#FFFFFF" d="M65.8,92.2c-0.3,0.4-0.7,0.6-1.1,0.7c-0.1,0-0.2,0-0.2,0c-1.3,0-2.4-1.2-2.7-2.8
		c-0.2-1,0-2.1,0.5-2.8c0.3-0.5,0.8-0.7,1.3-0.8c0.1,0,0.3,0,0.4,0c1.5,0,2.3,1.4,2.5,2.7C66.6,90.4,66.3,91.5,65.8,92.2L65.8,92.2z
		 M64.1,85.8c-0.2,0-0.5,0-0.7,0.1c-1,0.2-1.9,0.7-2.4,1.5c-0.6,0.8-0.8,1.8-0.6,2.9c0.3,1.9,1.9,3.2,3.8,3.2c0.2,0,0.4,0,0.5,0
		c0.9-0.1,1.7-0.6,2.3-1.3c0.7-0.9,1-2,0.8-3.2C67.5,87.1,66,85.8,64.1,85.8L64.1,85.8z"/>
	<path id="XMLID_247_" fill="#FFFFFF" d="M76,89.8c-0.5,0-1.2-0.1-1.2-0.4v-1.9c0-0.5,0.2-0.8,0.5-0.9c0.2-0.1,0.3-0.1,0.5-0.1
		c0.8,0,1.6,0.5,1.6,1.6C77.5,89.5,76.7,89.8,76,89.8L76,89.8z M80.3,92.9L80.3,92.9c0,0-0.1,0-0.1,0c-0.2,0-0.7-0.1-1.4-1.4
		c-0.2-0.3-0.7-1-1.3-1.3c0.8-0.4,1.3-1.2,1.2-2.3c-0.1-1.8-1.9-2-2.7-2c-0.1,0-0.3,0-0.4,0c-0.7,0.1-1.5,0.1-1.5,0.1
		c0,0-0.2,0-0.4,0c-0.4,0-0.9,0-1.3,0l0,0c0,0-0.1,0-0.1,0.1c0,0,0,0.1,0,0.4c0,0,0,0,0,0.1c0,0,0,0,0.1,0c0,0,1.2,0,1.2,1v4.4
		c0,0.9-1.1,0.9-1.2,0.9c-0.1,0-0.1,0.1-0.1,0.1c0,0.3,0,0.3,0,0.4c0,0,0,0,0,0.1c0,0,0.1,0,0.1,0c0.7,0,1.7,0,1.7,0c0,0,1.4,0,2,0
		c0,0,0,0,0,0c0,0,0.1,0,0.1,0l0,0v-0.4c0,0,0-0.1-0.1-0.1c-0.1,0-0.7,0-1.1-0.4c-0.1-0.1-0.2-0.3-0.2-0.6l0-1.7
		c0.3,0.1,0.9,0.1,1.3,0.1c0.4,0,1.1,0.8,1.5,1.5c0.7,1.3,1.3,1.5,1.9,1.5c0.2,0,0.5,0,0.7-0.1c0,0,0.1,0,0.1-0.1L80.3,92.9
		C80.4,92.9,80.4,92.9,80.3,92.9L80.3,92.9z"/>
	<g id="XMLID_238_">
		<path id="XMLID_246_" fill="#FFFFFF" d="M88,86C88,86,88,86,88,86c-0.7,0-1.9,0.1-1.9,0.1c0,0-1.2,0-1.8,0c0,0,0,0,0,0
			c-0.1,0-0.1,0-0.1,0.1v0.4c0,0,0,0.1,0.1,0.1c0,0,0,0,0,0c0,0,0.1,0,0.2,0c0.4,0,1.1,0.1,1.1,0.9v4.4c0,0.4-0.1,0.6-0.4,0.8
			c-0.2,0.1-0.5,0.2-0.7,0.2c-0.1,0-0.1,0-0.2,0c0,0,0,0,0,0c-0.1,0-0.1,0.1-0.1,0.1c0,0.3,0,0.3,0,0.4c0,0,0,0.1,0.1,0.1
			c0,0,0,0,0,0c0.7,0,1.8,0,1.8,0c0,0,1.2,0,1.8,0c0,0,0,0,0,0c0,0,0.1,0,0.1,0l0,0v-0.4c0,0,0-0.1-0.1-0.1c0,0,0,0,0,0
			c0,0-0.1,0-0.2,0c-0.4,0-1.1-0.1-1.1-0.9v-4.4c0-0.8,0.7-0.9,1.1-0.9c0.1,0,0.1,0,0.2,0c0,0,0,0,0,0c0.1,0,0.1-0.1,0.1-0.1L88,86
			L88,86C88.1,86,88,86,88,86L88,86z"/>
		<path id="XMLID_243_" fill="#FFFFFF" d="M98,92.2c-0.3,0.4-0.7,0.6-1.1,0.7c-0.1,0-0.2,0-0.2,0c-1.3,0-2.4-1.2-2.7-2.8
			c-0.2-1,0-2.1,0.5-2.8c0.3-0.5,0.8-0.7,1.3-0.8c0.1,0,0.3,0,0.4,0c1.5,0,2.3,1.4,2.5,2.7C98.8,90.4,98.5,91.5,98,92.2L98,92.2z
			 M100,89c-0.3-1.9-1.8-3.1-3.7-3.1c-0.2,0-0.5,0-0.7,0.1c-1,0.2-1.9,0.7-2.4,1.5c-0.6,0.8-0.8,1.8-0.6,2.9
			c0.3,1.9,1.9,3.2,3.8,3.2c0.2,0,0.4,0,0.5,0c0.9-0.1,1.7-0.6,2.3-1.3C99.9,91.3,100.2,90.2,100,89L100,89z"/>
		<path id="XMLID_240_" fill="#FFFFFF" d="M3.9,86.3c0.5,0,0.8,0.2,1.1,0.5c0.3,0.3,0.5,0.8,0.5,1.1H2C2.3,86.9,3,86.3,3.9,86.3
			L3.9,86.3z M6.9,91.3c0,0,0-0.1-0.1-0.1c-0.1,0-0.1,0-0.1,0c-0.1,0.3-0.9,1-2.1,1c-0.4,0-0.8-0.1-1.2-0.2
			c-1.5-0.6-1.7-2.5-1.4-3.6h4.9c0.1,0,0.1,0,0.1-0.1c0,0,0-0.1,0-0.2c0-1.4-1.2-2.5-2.7-2.5c-0.5,0-0.9,0.1-1.4,0.3
			c-0.9,0.4-1.6,1.1-2,1.9c-0.5,1.2-0.4,2.6-0.1,3.2c0.4,1,1.1,1.8,2,2.1c0.4,0.1,0.9,0.2,1.3,0.2c1.9,0,2.8-1.6,2.9-1.9
			c0,0,0,0,0,0C6.9,91.4,6.9,91.4,6.9,91.3L6.9,91.3L6.9,91.3L6.9,91.3z"/>
	</g>
	<polygon id="XMLID_237_" fill="#FFFFFF" points="46.9,13.6 46.9,13.6 53,24 57.1,24 57.1,7.5 53.3,7.5 53.3,18 53.3,18 47.3,7.5 
		43.1,7.5 43.1,24 46.9,24 46.9,13.6 	"/>
	<path id="XMLID_221_" fill="#FFFFFF" d="M84.9,26.2c-0.4,0.2-0.9,0.3-1.3,0.3c-0.8,0-1.5-0.3-2.1-0.9l3.2-1.7L84,22.5l-3.2,1.7
		c-0.1-0.5-0.1-0.9,0.1-1.4c0.2-0.7,0.7-1.3,1.4-1.7c0.2-0.1,0.5-0.2,1.1-0.2c1.3,0,3,0.5,4,0.8C86.8,23.5,85.8,25.7,84.9,26.2
		L84.9,26.2z M74.6,13.7c0.1-1,1.9-2.7,3.3-3.9c1.2,1.5,2.5,3.6,2.4,4.6c-0.1,1.3-1.1,2.3-2.3,2.5l0.4-3.6l-1.7-0.2l-0.4,3.6
		C75.2,16.1,74.5,15,74.6,13.7L74.6,13.7z M75.9,28.7c0.1-0.1,0.3-0.2,0.5-0.2c0.5,0,1.1,0.4,1.6,0.9c0.3,0.4,0.5,0.9,0.5,1.4
		c0,0.2,0,0.6-0.3,0.8c-0.1,0.1-0.3,0.2-0.5,0.2c-0.5,0-1.1-0.4-1.6-0.9C75.5,30.2,75.4,29.1,75.9,28.7L75.9,28.7z M71.2,25.8
		L68.9,23l-1.3,1l2.2,2.8c-0.3,0.1-0.7,0.2-1,0.2c-0.9,0-1.7-0.4-2.3-1.1c-0.6-0.8-0.6-3.2-0.4-5.1c1.9,0.2,4.3,0.8,4.9,1.6
		C71.9,23.4,71.9,24.8,71.2,25.8L71.2,25.8z M70,40.2c0.5,0.9,0,3.3-0.6,5.1c-1.8-0.6-4-1.6-4.5-2.5c-0.6-1.1-0.3-2.5,0.5-3.4
		l1.7,3.2l1.5-0.8l-1.7-3.2c0.2,0,0.3,0,0.5,0C68.5,38.6,69.5,39.2,70,40.2L70,40.2z M35.6,42.8c-0.5,0.9-2.7,1.9-4.5,2.5
		c-0.6-1.8-1-4.2-0.6-5.1c0.5-1,1.5-1.6,2.5-1.6c0.2,0,0.3,0,0.5,0l-1.7,3.2l1.5,0.8l1.7-3.2c0.3,0.3,0.6,0.7,0.7,1.2
		C36,41.3,35.9,42.1,35.6,42.8L35.6,42.8z M28.8,24.5c-0.1-0.8,0.1-1.5,0.6-2.1c0.6-0.8,3-1.3,4.9-1.6c0.2,1.9,0.2,4.3-0.4,5.1
		c-0.5,0.7-1.4,1.1-2.3,1.1c-0.4,0-0.7-0.1-1-0.2l2.2-2.8l-1.3-1l-2.2,2.8C29,25.4,28.9,25,28.8,24.5L28.8,24.5z M24.4,30.9
		c-0.4,0.6-1,0.9-1.6,0.9c-0.2,0-0.4-0.1-0.5-0.2c-0.5-0.4-0.4-1.4,0.2-2.2c0.4-0.6,1-0.9,1.6-0.9c0.2,0,0.4,0.1,0.5,0.2
		C25.1,29.1,25,30.2,24.4,30.9L24.4,30.9z M23.8,13.1l-1.7,0.2l0.4,3.6c-1.2-0.2-2.2-1.2-2.3-2.5c-0.1-1,1.2-3.1,2.4-4.6
		c1.5,1.2,3.2,2.9,3.3,3.9c0.1,0.8-0.1,1.5-0.6,2.1c-0.3,0.4-0.7,0.7-1.1,0.9L23.8,13.1L23.8,13.1z M19.7,24.1l-3.2-1.7L15.8,24
		l3.2,1.7c-0.5,0.5-1.3,0.9-2.1,0.9c-0.5,0-0.9-0.1-1.3-0.3c-0.9-0.5-1.9-2.7-2.5-4.5c1-0.3,2.7-0.8,4-0.8c0.6,0,0.9,0.1,1.1,0.2
		c0.7,0.4,1.2,0.9,1.4,1.7C19.8,23.2,19.8,23.7,19.7,24.1L19.7,24.1z M37.1,29.1c0.4-0.6,1-0.9,1.6-0.9c0.2,0,0.4,0.1,0.5,0.2
		c0.3,0.2,0.3,0.6,0.3,0.8c0,0.5-0.2,1-0.5,1.4c-0.4,0.6-1,0.9-1.6,0.9c-0.2,0-0.4-0.1-0.5-0.2c-0.3-0.2-0.3-0.6-0.3-0.8
		C36.6,30,36.8,29.5,37.1,29.1L37.1,29.1z M40.2,33.7c0.5,0.2,1,0.4,1.2,0.8c0.1,0.2,0.3,0.5,0.2,0.9C41.6,35.8,41,36,40.3,36
		c-0.3,0-0.5,0-0.8-0.1c-1-0.3-1.6-1.1-1.5-1.7c0.1-0.4,0.7-0.7,1.4-0.7C39.7,33.6,40,33.6,40.2,33.7L40.2,33.7z M63.6,31.3
		c-0.1,0.1-0.3,0.2-0.5,0.2c-0.5,0-1.1-0.4-1.6-0.9c-0.6-0.8-0.7-1.8-0.2-2.2c0.1-0.1,0.3-0.2,0.5-0.2c0.5,0,1.1,0.4,1.6,0.9
		C64,29.9,64.1,30.9,63.6,31.3L63.6,31.3z M60.9,35.9C60.7,36,60.4,36,60.2,36c-0.7,0-1.2-0.3-1.4-0.7c-0.2-0.6,0.5-1.4,1.5-1.7
		c0.3-0.1,0.5-0.1,0.8-0.1c0.7,0,1.2,0.3,1.4,0.7C62.6,34.9,61.9,35.6,60.9,35.9L60.9,35.9z M83.4,19.2c-0.8,0-1.4,0.1-1.9,0.4
		c-1.1,0.6-1.9,1.5-2.2,2.6c-0.2,0.6-0.3,1.2-0.2,1.8c-0.8,0-1.7,0.1-2.6,0.4c0.6-1.9,1.1-3.9,1.3-5.9c2.2-0.1,3.9-1.8,4.2-4
		c0.1-1.1-0.4-2.4-1.6-4.2c-0.8-1.2-1.6-2.2-1.7-2.2l-0.5-0.6l-0.6,0.4c0,0-1.1,0.8-2.1,1.8c-1.6,1.5-2.4,2.7-2.5,3.7
		c-0.3,2.2,1.1,4.2,3.2,4.9c-0.4,3.1-1.2,5.9-2.4,8.5c0,0.1-0.1,0.1-0.1,0.2c-0.3,0.6-0.6,1.2-0.9,1.8c-0.1-0.6-0.3-1.1-0.6-1.6
		c1.5-1.6,1.6-4.1,0.2-5.9c-0.7-0.8-2-1.4-4.1-1.9c-1.4-0.3-2.7-0.4-2.8-0.4l-0.8-0.1l-0.1,0.8c0,0.1-0.2,1.3-0.3,2.8
		c-0.1,2.1,0.2,3.6,0.9,4.4c0.9,1.1,2.2,1.7,3.6,1.7c0.7,0,1.3-0.2,1.9-0.4c0.5,1.1,0.8,2.5-0.3,3.8l0,0c-0.2,0.3-0.5,0.6-0.8,0.9
		c-0.4,0.5-0.9,0.9-1.3,1.4c-0.2,0.1-0.3,0.2-0.5,0.4l0,0c-0.5,0.5-1.1,1-1.7,1.4c0.1-1.6-0.6-3.1-1.3-4c0.8-1.1,0.7-2.8-0.3-4.1
		c-0.8-1-1.8-1.5-2.9-1.5c-0.6,0-1.1,0.2-1.5,0.5c-1.3,1-1.3,3-0.1,4.5c0.1,0.1,0.2,0.2,0.3,0.4c-0.2,0-0.5,0.1-0.7,0.1
		c-1.9,0.6-3,2.2-2.6,3.7c0.2,0.6,0.6,1.1,1.2,1.4c0.5,0.3,1.1,0.5,1.8,0.5c0.4,0,0.8-0.1,1.2-0.2c1.9-0.6,3-2.2,2.6-3.7
		c0,0,0,0,0,0c0.6,1,1.1,2.8-0.1,4.3l0,0c-1.7,1.1-3.5,2.1-5.5,2.9c-2.8,1.2-5.6,2-8.1,2.6c-2.4-0.5-5.2-1.3-8-2.5
		c-2-0.9-3.9-1.8-5.6-2.9l0,0c-1.3-1.5-0.7-3.2-0.1-4.3c0,0,0,0,0,0c-0.5,1.5,0.7,3.2,2.6,3.7c0.4,0.1,0.8,0.2,1.2,0.2
		c0.7,0,1.3-0.2,1.8-0.5c0.6-0.3,1-0.8,1.2-1.4c0.2-0.8,0-1.6-0.5-2.3c-0.5-0.7-1.2-1.2-2.1-1.4C40.5,32,40.2,32,40,31.9
		c0.1-0.1,0.2-0.2,0.3-0.4c0.6-0.7,0.9-1.5,0.9-2.4c0-0.9-0.3-1.7-1-2.2c-0.4-0.3-1-0.5-1.5-0.5c-1.1,0-2.1,0.6-2.9,1.5
		c-0.6,0.7-0.9,1.5-0.9,2.4c0,0.7,0.2,1.3,0.6,1.8c-0.7,1-1.3,2.5-1.3,4c-0.6-0.5-1.1-0.9-1.7-1.4l0,0c-0.2-0.1-0.3-0.3-0.5-0.4
		c-0.5-0.4-0.9-0.9-1.3-1.4c-0.3-0.3-0.5-0.6-0.8-0.9l0,0c-1.1-1.3-0.8-2.8-0.3-3.8c0.6,0.3,1.3,0.4,1.9,0.4c1.4,0,2.7-0.6,3.6-1.7
		c0.7-0.8,0.9-2.3,0.9-4.4c0-1.5-0.2-2.7-0.3-2.8l-0.1-0.8L35,19.1c-0.1,0-1.3,0.1-2.8,0.4c-2.1,0.4-3.4,1-4.1,1.9
		c-0.8,0.9-1.1,2.1-0.9,3.3c0.1,1,0.5,1.9,1.2,2.6c-0.2,0.5-0.4,1-0.6,1.6c-0.3-0.6-0.7-1.2-0.9-1.8c0-0.1-0.1-0.1-0.1-0.2
		c-1.2-2.6-2-5.4-2.4-8.5c0.9-0.3,1.6-0.8,2.2-1.5c0.8-0.9,1.1-2.1,0.9-3.3c-0.1-1.1-0.9-2.3-2.5-3.7c-1.1-1-2.1-1.8-2.1-1.8
		l-0.6-0.4l-0.5,0.6c0,0-0.9,1-1.7,2.2c-1.2,1.8-1.7,3.2-1.6,4.2c0.3,2.2,2,3.8,4.2,4c0.3,2.1,0.7,4.1,1.3,5.9
		c-0.9-0.3-1.8-0.4-2.6-0.4c0.1-0.6,0-1.2-0.2-1.8c-0.4-1.2-1.2-2.1-2.2-2.6c-0.5-0.3-1.1-0.4-1.9-0.4c-2.2,0-5.2,1.1-5.3,1.1
		l-0.7,0.3l0.2,0.7c0,0.1,0.3,1.3,0.9,2.6c0.8,2,1.7,3.2,2.6,3.7c0.6,0.3,1.4,0.5,2.1,0.5c1.7,0,3.2-0.9,4-2.4
		c0.5-0.1,2.8-0.2,4,1.3c-0.3-0.1-0.5-0.1-0.8-0.1c-1.1,0-2.1,0.6-2.9,1.5C20,30,20.1,32,21.3,33c0.4,0.3,1,0.5,1.5,0.5
		c1.1,0,2.1-0.6,2.9-1.5c0.5-0.6,0.8-1.3,0.8-1.9c0.7,1.2,1.5,2.4,2.5,3.5c-1.5,0.1-3,0.8-3.8,1.4l1,1.3c0.1-0.1,2.7-2,4.8-0.6
		c0.5,0.4,0.9,0.9,1.4,1.3C31,37.2,29.7,38,29,39.4c-0.5,0.9-0.5,2.4,0,4.5c0.3,1.4,0.8,2.6,0.8,2.7l0.3,0.7l0.7-0.2
		c0.1,0,1.3-0.3,2.6-0.9c2-0.8,3.2-1.7,3.7-2.6c0.5-1,0.6-2.1,0.4-3.1c1.3,0.7,2.7,1.4,4.1,2c1.6,0.7,3.2,1.3,4.8,1.7
		c-2.3,0.3-3.8,0.4-3.8,0.4l0,1.7c0.2,0,3.3-0.1,7.7-1c4.3,0.9,7.5,1,7.7,1l0-1.7c0,0-1.5,0-3.8-0.4c1.5-0.5,3.2-1,4.8-1.7
		c1.5-0.6,2.8-1.3,4.1-2c-0.2,1-0.1,2.1,0.4,3.1c0.5,0.9,1.7,1.8,3.7,2.6c1.4,0.6,2.6,0.9,2.6,0.9l0.7,0.2l0.3-0.7
		c0,0,0.5-1.2,0.8-2.7c0.5-2.1,0.5-3.6,0-4.5c-0.7-1.3-2-2.2-3.5-2.4c0.5-0.4,1-0.9,1.4-1.3c2.1-1.4,4.7,0.5,4.8,0.6l1-1.3
		c-0.8-0.6-2.2-1.3-3.8-1.4c0.9-1.1,1.7-2.3,2.5-3.5c0.1,0.6,0.4,1.3,0.8,1.9c0.8,1,1.8,1.5,2.9,1.5c0.6,0,1.1-0.2,1.5-0.5
		c0.6-0.5,1-1.3,1-2.2c0-0.8-0.3-1.7-0.9-2.4c-0.8-1-1.8-1.5-2.9-1.5c-0.3,0-0.6,0-0.8,0.1c1.2-1.5,3.5-1.4,4-1.3
		c0.8,1.5,2.3,2.4,4,2.4h0c0.7,0,1.4-0.2,2.1-0.5c0.9-0.5,1.8-1.7,2.6-3.7c0.6-1.4,0.9-2.6,0.9-2.6l0.2-0.7l-0.7-0.3
		C88.6,20.3,85.6,19.2,83.4,19.2L83.4,19.2z"/>
</g>
</svg>
