<?xml version="1.0" encoding="utf-8"?>
<!-- Generator: Adobe Illustrator 19.0.0, SVG Export Plug-In . SVG Version: 6.00 Build 0)  -->
<!DOCTYPE svg PUBLIC "-//W3C//DTD SVG 1.1//EN" "http://www.w3.org/Graphics/SVG/1.1/DTD/svg11.dtd">
<svg version="1.1" id="Layer_1" xmlns="http://www.w3.org/2000/svg" xmlns:xlink="http://www.w3.org/1999/xlink" x="0px" y="0px"
	 viewBox="0 0 68 56.5" enable-background="new 0 0 68 56.5" xml:space="preserve">
<rect id="XMLID_23_" x="52.6" y="19.6" transform="matrix(5.446449e-02 0.9985 -0.9985 5.446449e-02 76.479 -41.2236)" opacity="0.7" fill="#CCCCCC" width="14.8" height="0.3"/>
<rect id="XMLID_22_" x="43" y="19.6" transform="matrix(0.6939 0.7201 -0.7201 0.6939 30.5489 -32.3219)" opacity="0.7" fill="#CCCCCC" width="20.5" height="0.3"/>
<rect id="XMLID_21_" x="23.7" y="1.5" transform="matrix(7.326000e-02 0.9973 -0.9973 7.326000e-02 31.8057 -14.6982)" opacity="0.7" fill="#CCCCCC" width="0.3" height="16.6"/>
<rect id="XMLID_20_" x="9.6" y="7.4" transform="matrix(0.5909 0.8067 -0.8067 0.5909 15.778 -1.9148)" opacity="0.7" fill="#CCCCCC" width="0.3" height="14.3"/>
<rect id="XMLID_19_" x="4" y="19.4" transform="matrix(0.9971 7.554112e-02 -7.554112e-02 0.9971 1.5099 -0.9162)" opacity="0.7" fill="#CCCCCC" width="17.8" height="0.3"/>
<rect id="XMLID_18_" x="20.1" y="20" transform="matrix(0.9614 0.2752 -0.2752 0.9614 7.7578 -4.5954)" opacity="0.7" fill="#CCCCCC" width="0.3" height="10.8"/>
<rect id="XMLID_17_" x="7" y="20.3" transform="matrix(0.158 0.9874 -0.9874 0.158 34.637 0.2642)" opacity="0.7" fill="#CCCCCC" width="20.4" height="0.3"/>
<rect id="XMLID_16_" x="14.5" y="27.3" transform="matrix(3.673989e-02 0.9993 -0.9993 3.673989e-02 58.9468 -6.3027)" opacity="0.7" fill="#CCCCCC" width="36.6" height="0.3"/>
<rect id="XMLID_15_" x="40.7" y="30.7" transform="matrix(0.6037 0.7972 -0.7972 0.6037 48.1212 -16.7091)" opacity="0.7" fill="#CCCCCC" width="0.3" height="18.7"/>
<rect id="XMLID_14_" x="18.6" y="32.3" transform="matrix(0.9914 0.1307 -0.1307 0.9914 4.5301 -4.106)" opacity="0.7" fill="#CCCCCC" width="29.8" height="0.3"/>
<rect id="XMLID_13_" x="33.8" y="3.5" transform="matrix(0.3036 0.9528 -0.9528 0.3036 39.1537 -21.0127)" opacity="0.7" fill="#CCCCCC" width="0.3" height="25.7"/>
<rect id="XMLID_12_" x="54.2" y="23.7" transform="matrix(0.5139 0.8578 -0.8578 0.5139 52.8329 -31.6737)" opacity="0.7" fill="#CCCCCC" width="0.3" height="14.1"/>
<rect id="XMLID_11_" x="36.2" y="23.3" transform="matrix(9.709939e-02 0.9953 -0.9953 9.709939e-02 65.9457 -25.8994)" opacity="0.7" fill="#CCCCCC" width="22.1" height="0.3"/>
<rect id="XMLID_10_" x="61.4" y="3.9" transform="matrix(0.9002 0.4355 -0.4355 0.9002 9.7803 -25.9691)" opacity="0.7" fill="#CCCCCC" width="0.3" height="9"/>
<rect id="XMLID_9_" x="54.7" y="-1.2" transform="matrix(0.422 0.9066 -0.9066 0.422 39.2674 -44.8842)" opacity="0.7" fill="#CCCCCC" width="0.3" height="19.1"/>
<rect id="XMLID_8_" x="26.8" y="17.7" transform="matrix(0.4527 0.8916 -0.8916 0.4527 35.8505 -22.7641)" opacity="0.7" fill="#CCCCCC" width="19.4" height="0.3"/>
<rect id="XMLID_7_" x="37" y="25.8" transform="matrix(0.9325 0.3613 -0.3613 0.9325 15.5459 -10.9806)" opacity="0.7" fill="#CCCCCC" width="0.3" height="20.6"/>
<rect id="XMLID_6_" x="46.4" y="34.2" transform="matrix(0.9823 0.1875 -0.1875 0.9823 8.9886 -7.9596)" opacity="0.7" fill="#CCCCCC" width="0.3" height="18.6"/>
<rect id="XMLID_5_" x="32.4" y="49" transform="matrix(0.853 0.5219 -0.5219 0.853 31.4159 -13.1879)" opacity="0.7" fill="#CCCCCC" width="13.4" height="0.3"/>
<rect id="XMLID_4_" x="29.6" y="39.4" transform="matrix(0.1496 0.9887 -0.9887 0.1496 75.5745 -8.7073)" opacity="0.7" fill="#CCCCCC" width="26.5" height="0.3"/>
<rect id="XMLID_3_" x="31.9" y="10.6" transform="matrix(0.9749 0.2228 -0.2228 0.9749 3.3839 -8.4466)" opacity="0.7" fill="#CCCCCC" width="14.5" height="0.3"/>
<rect id="XMLID_2_" x="47.7" y="-9.2" transform="matrix(0.1524 0.9883 -0.9883 0.1524 47.1688 -41.5112)" opacity="0.7" fill="#CCCCCC" width="0.3" height="31.8"/>
<circle id="XMLID_189_" opacity="0.7" fill="#CCCCCC" cx="59.6" cy="12.4" r="0.7"/>
<circle id="XMLID_193_" opacity="0.7" fill="#CCCCCC" cx="48.3" cy="34.4" r="0.7"/>
<circle id="XMLID_198_" opacity="0.7" fill="#CCCCCC" cx="21.7" cy="20.2" r="0.7"/>
<circle id="XMLID_224_" opacity="0.7" fill="#CCCCCC" cx="60.4" cy="27.2" r="0.7"/>
<circle id="XMLID_196_" opacity="0.7" fill="#CCCCCC" cx="33.4" cy="45.7" r="0.7"/>
<circle id="XMLID_194_" opacity="0.7" fill="#CCCCCC" cx="4" cy="18.8" r="0.7"/>
<circle id="XMLID_191_" opacity="0.7" fill="#CCCCCC" cx="18.8" cy="30.5" r="0.7"/>
<circle id="XMLID_197_" opacity="0.7" fill="#CCCCCC" cx="32.1" cy="9.2" r="0.7"/>
<circle id="XMLID_225_" opacity="0.7" fill="#CCCCCC" cx="46.2" cy="12.4" r="0.7"/>
<circle id="XMLID_201_" opacity="0.7" fill="#CCCCCC" cx="63.5" cy="4.3" r="0.7"/>
<circle id="XMLID_218_" opacity="0.7" fill="#CCCCCC" cx="44.8" cy="52.7" r="0.7"/>
<circle id="XMLID_219_" opacity="0.7" fill="#CCCCCC" cx="40.9" cy="26.5" r="0.7"/>
<circle id="XMLID_199_" opacity="0.7" fill="#CCCCCC" cx="15.6" cy="10.4" r="0.7"/>
</svg>
